<mxfile host="Electron" modified="2024-01-21T18:13:20.214Z" agent="Mozilla/5.0 (X11; Linux x86_64) AppleWebKit/537.36 (KHTML, like Gecko) draw.io/22.1.16 Chrome/120.0.6099.109 Electron/28.1.1 Safari/537.36" etag="rDAf_uk82xxJjqSGRR_c" version="22.1.16" type="device">
  <diagram name="Page-1" id="W3K2XkLJ724ttI-3y9i6">
    <mxGraphModel dx="329" dy="797" grid="1" gridSize="10" guides="1" tooltips="1" connect="1" arrows="1" fold="1" page="1" pageScale="1" pageWidth="850" pageHeight="1100" math="0" shadow="0">
      <root>
        <mxCell id="0" />
        <mxCell id="1" parent="0" />
        <mxCell id="0k3YlaqSM5i2ioF7Ne2N-14" value="user" style="rounded=0;whiteSpace=wrap;html=1;" parent="1" vertex="1">
          <mxGeometry x="102" y="270" width="70" height="40" as="geometry" />
        </mxCell>
        <mxCell id="0k3YlaqSM5i2ioF7Ne2N-60" style="rounded=0;orthogonalLoop=1;jettySize=auto;html=1;exitX=0.75;exitY=0;exitDx=0;exitDy=0;entryX=0;entryY=1;entryDx=0;entryDy=0;endArrow=none;endFill=0;" parent="1" source="0k3YlaqSM5i2ioF7Ne2N-16" target="0k3YlaqSM5i2ioF7Ne2N-59" edge="1">
          <mxGeometry relative="1" as="geometry" />
        </mxCell>
        <mxCell id="51aXv0iK2E-C18hT-EF_-11" style="rounded=0;orthogonalLoop=1;jettySize=auto;html=1;exitX=1;exitY=0;exitDx=0;exitDy=0;entryX=0;entryY=0.5;entryDx=0;entryDy=0;endArrow=none;endFill=0;" parent="1" source="0k3YlaqSM5i2ioF7Ne2N-16" target="51aXv0iK2E-C18hT-EF_-8" edge="1">
          <mxGeometry relative="1" as="geometry" />
        </mxCell>
        <mxCell id="51aXv0iK2E-C18hT-EF_-12" value="1,1" style="edgeLabel;html=1;align=center;verticalAlign=middle;resizable=0;points=[];" parent="51aXv0iK2E-C18hT-EF_-11" vertex="1" connectable="0">
          <mxGeometry x="0.0028" y="-2" relative="1" as="geometry">
            <mxPoint as="offset" />
          </mxGeometry>
        </mxCell>
        <mxCell id="R4yh9_pA13OnIEpvpWFa-41" style="rounded=0;orthogonalLoop=1;jettySize=auto;html=1;exitX=1;exitY=1;exitDx=0;exitDy=0;entryX=0;entryY=0;entryDx=0;entryDy=0;endArrow=none;endFill=0;" parent="1" source="0k3YlaqSM5i2ioF7Ne2N-16" target="R4yh9_pA13OnIEpvpWFa-40" edge="1">
          <mxGeometry relative="1" as="geometry" />
        </mxCell>
        <mxCell id="R4yh9_pA13OnIEpvpWFa-46" value="n_divisions" style="edgeLabel;html=1;align=center;verticalAlign=middle;resizable=0;points=[];" parent="R4yh9_pA13OnIEpvpWFa-41" vertex="1" connectable="0">
          <mxGeometry x="-0.45" y="3" relative="1" as="geometry">
            <mxPoint y="5" as="offset" />
          </mxGeometry>
        </mxCell>
        <mxCell id="R4yh9_pA13OnIEpvpWFa-55" style="rounded=0;orthogonalLoop=1;jettySize=auto;html=1;exitX=0.25;exitY=0;exitDx=0;exitDy=0;entryX=1;entryY=1;entryDx=0;entryDy=0;endArrow=none;endFill=0;" parent="1" source="0k3YlaqSM5i2ioF7Ne2N-16" target="R4yh9_pA13OnIEpvpWFa-54" edge="1">
          <mxGeometry relative="1" as="geometry" />
        </mxCell>
        <mxCell id="0k3YlaqSM5i2ioF7Ne2N-16" value="league" style="rounded=0;whiteSpace=wrap;html=1;" parent="1" vertex="1">
          <mxGeometry x="340" y="310" width="80" height="30" as="geometry" />
        </mxCell>
        <mxCell id="0k3YlaqSM5i2ioF7Ne2N-17" value="username" style="ellipse;whiteSpace=wrap;html=1;fillColor=#f5f5f5;fontColor=#333333;strokeColor=#666666;" parent="1" vertex="1">
          <mxGeometry x="52" y="210" width="60" height="30" as="geometry" />
        </mxCell>
        <mxCell id="0k3YlaqSM5i2ioF7Ne2N-19" value="" style="endArrow=none;html=1;rounded=0;exitX=0;exitY=0;exitDx=0;exitDy=0;entryX=0.5;entryY=1;entryDx=0;entryDy=0;" parent="1" source="0k3YlaqSM5i2ioF7Ne2N-14" target="0k3YlaqSM5i2ioF7Ne2N-17" edge="1">
          <mxGeometry width="50" height="50" relative="1" as="geometry">
            <mxPoint x="532" y="310" as="sourcePoint" />
            <mxPoint x="582" y="260" as="targetPoint" />
          </mxGeometry>
        </mxCell>
        <mxCell id="0k3YlaqSM5i2ioF7Ne2N-20" value="email" style="ellipse;whiteSpace=wrap;html=1;fillColor=#f5f5f5;fontColor=#333333;strokeColor=#666666;" parent="1" vertex="1">
          <mxGeometry x="113" y="190" width="48" height="20" as="geometry" />
        </mxCell>
        <mxCell id="0k3YlaqSM5i2ioF7Ne2N-21" value="" style="endArrow=none;html=1;rounded=0;entryX=0.5;entryY=1;entryDx=0;entryDy=0;exitX=0.5;exitY=0;exitDx=0;exitDy=0;" parent="1" source="0k3YlaqSM5i2ioF7Ne2N-14" target="0k3YlaqSM5i2ioF7Ne2N-20" edge="1">
          <mxGeometry width="50" height="50" relative="1" as="geometry">
            <mxPoint x="682" y="380" as="sourcePoint" />
            <mxPoint x="672" y="360" as="targetPoint" />
          </mxGeometry>
        </mxCell>
        <mxCell id="0k3YlaqSM5i2ioF7Ne2N-22" value="password" style="ellipse;whiteSpace=wrap;html=1;fillColor=#f5f5f5;fontColor=#333333;strokeColor=#666666;" parent="1" vertex="1">
          <mxGeometry x="32" y="320" width="80" height="30" as="geometry" />
        </mxCell>
        <mxCell id="0k3YlaqSM5i2ioF7Ne2N-23" value="" style="endArrow=none;html=1;rounded=0;entryX=0;entryY=1;entryDx=0;entryDy=0;" parent="1" source="0k3YlaqSM5i2ioF7Ne2N-22" target="0k3YlaqSM5i2ioF7Ne2N-14" edge="1">
          <mxGeometry width="50" height="50" relative="1" as="geometry">
            <mxPoint x="532" y="330" as="sourcePoint" />
            <mxPoint x="582" y="260" as="targetPoint" />
          </mxGeometry>
        </mxCell>
        <mxCell id="0k3YlaqSM5i2ioF7Ne2N-24" value="id" style="ellipse;whiteSpace=wrap;html=1;" parent="1" vertex="1">
          <mxGeometry x="172" y="215" width="60" height="20" as="geometry" />
        </mxCell>
        <mxCell id="0k3YlaqSM5i2ioF7Ne2N-25" value="" style="endArrow=none;html=1;rounded=0;entryX=0;entryY=1;entryDx=0;entryDy=0;exitX=1;exitY=0;exitDx=0;exitDy=0;" parent="1" source="0k3YlaqSM5i2ioF7Ne2N-14" target="0k3YlaqSM5i2ioF7Ne2N-24" edge="1">
          <mxGeometry width="50" height="50" relative="1" as="geometry">
            <mxPoint x="210" y="270" as="sourcePoint" />
            <mxPoint x="582" y="260" as="targetPoint" />
          </mxGeometry>
        </mxCell>
        <mxCell id="0k3YlaqSM5i2ioF7Ne2N-26" value="id" style="ellipse;whiteSpace=wrap;html=1;" parent="1" vertex="1">
          <mxGeometry x="350" y="220" width="60" height="30" as="geometry" />
        </mxCell>
        <mxCell id="0k3YlaqSM5i2ioF7Ne2N-27" value="" style="endArrow=none;html=1;rounded=0;exitX=0.5;exitY=0;exitDx=0;exitDy=0;entryX=0.5;entryY=1;entryDx=0;entryDy=0;" parent="1" source="0k3YlaqSM5i2ioF7Ne2N-16" target="0k3YlaqSM5i2ioF7Ne2N-26" edge="1">
          <mxGeometry width="50" height="50" relative="1" as="geometry">
            <mxPoint x="532" y="310" as="sourcePoint" />
            <mxPoint x="582" y="260" as="targetPoint" />
          </mxGeometry>
        </mxCell>
        <mxCell id="0k3YlaqSM5i2ioF7Ne2N-28" value="master" style="rhombus;whiteSpace=wrap;html=1;" parent="1" vertex="1">
          <mxGeometry x="234" y="290" width="56" height="40" as="geometry" />
        </mxCell>
        <mxCell id="0k3YlaqSM5i2ioF7Ne2N-29" value="" style="endArrow=none;html=1;rounded=0;exitX=0;exitY=0;exitDx=0;exitDy=0;entryX=1;entryY=0.5;entryDx=0;entryDy=0;" parent="1" source="0k3YlaqSM5i2ioF7Ne2N-16" target="0k3YlaqSM5i2ioF7Ne2N-28" edge="1">
          <mxGeometry width="50" height="50" relative="1" as="geometry">
            <mxPoint x="442" y="310" as="sourcePoint" />
            <mxPoint x="300" y="315" as="targetPoint" />
          </mxGeometry>
        </mxCell>
        <mxCell id="0k3YlaqSM5i2ioF7Ne2N-30" value="1,1" style="edgeLabel;html=1;align=center;verticalAlign=middle;resizable=0;points=[];" parent="0k3YlaqSM5i2ioF7Ne2N-29" vertex="1" connectable="0">
          <mxGeometry x="-0.2375" y="-1" relative="1" as="geometry">
            <mxPoint as="offset" />
          </mxGeometry>
        </mxCell>
        <mxCell id="0k3YlaqSM5i2ioF7Ne2N-31" value="" style="endArrow=none;html=1;rounded=0;entryX=0;entryY=0.5;entryDx=0;entryDy=0;exitX=1;exitY=1;exitDx=0;exitDy=0;" parent="1" source="0k3YlaqSM5i2ioF7Ne2N-14" target="0k3YlaqSM5i2ioF7Ne2N-28" edge="1">
          <mxGeometry width="50" height="50" relative="1" as="geometry">
            <mxPoint x="612" y="380" as="sourcePoint" />
            <mxPoint x="492" y="260" as="targetPoint" />
          </mxGeometry>
        </mxCell>
        <mxCell id="0k3YlaqSM5i2ioF7Ne2N-32" value="0,N" style="edgeLabel;html=1;align=center;verticalAlign=middle;resizable=0;points=[];" parent="0k3YlaqSM5i2ioF7Ne2N-31" vertex="1" connectable="0">
          <mxGeometry x="0.2292" y="2" relative="1" as="geometry">
            <mxPoint as="offset" />
          </mxGeometry>
        </mxCell>
        <mxCell id="0k3YlaqSM5i2ioF7Ne2N-34" value="owns" style="rhombus;whiteSpace=wrap;html=1;" parent="1" vertex="1">
          <mxGeometry x="107" y="350" width="60" height="40" as="geometry" />
        </mxCell>
        <mxCell id="0k3YlaqSM5i2ioF7Ne2N-36" value="" style="endArrow=none;html=1;rounded=0;exitX=0.5;exitY=0;exitDx=0;exitDy=0;entryX=0.5;entryY=1;entryDx=0;entryDy=0;" parent="1" source="0k3YlaqSM5i2ioF7Ne2N-34" target="0k3YlaqSM5i2ioF7Ne2N-14" edge="1">
          <mxGeometry width="50" height="50" relative="1" as="geometry">
            <mxPoint x="442" y="310" as="sourcePoint" />
            <mxPoint x="492" y="260" as="targetPoint" />
          </mxGeometry>
        </mxCell>
        <mxCell id="0k3YlaqSM5i2ioF7Ne2N-38" value="0,N" style="edgeLabel;html=1;align=center;verticalAlign=middle;resizable=0;points=[];" parent="0k3YlaqSM5i2ioF7Ne2N-36" vertex="1" connectable="0">
          <mxGeometry x="-0.1521" y="-1" relative="1" as="geometry">
            <mxPoint as="offset" />
          </mxGeometry>
        </mxCell>
        <mxCell id="0k3YlaqSM5i2ioF7Ne2N-48" style="rounded=0;orthogonalLoop=1;jettySize=auto;html=1;exitX=0;exitY=1;exitDx=0;exitDy=0;entryX=1;entryY=0.5;entryDx=0;entryDy=0;endArrow=none;endFill=0;" parent="1" source="0k3YlaqSM5i2ioF7Ne2N-39" target="0k3YlaqSM5i2ioF7Ne2N-45" edge="1">
          <mxGeometry relative="1" as="geometry" />
        </mxCell>
        <mxCell id="0k3YlaqSM5i2ioF7Ne2N-49" value="5,N" style="edgeLabel;html=1;align=center;verticalAlign=middle;resizable=0;points=[];" parent="0k3YlaqSM5i2ioF7Ne2N-48" vertex="1" connectable="0">
          <mxGeometry x="-0.4311" y="-1" relative="1" as="geometry">
            <mxPoint as="offset" />
          </mxGeometry>
        </mxCell>
        <mxCell id="0k3YlaqSM5i2ioF7Ne2N-53" style="rounded=0;orthogonalLoop=1;jettySize=auto;html=1;exitX=1;exitY=0;exitDx=0;exitDy=0;entryX=0.5;entryY=1;entryDx=0;entryDy=0;endArrow=none;endFill=0;" parent="1" source="0k3YlaqSM5i2ioF7Ne2N-39" target="0k3YlaqSM5i2ioF7Ne2N-52" edge="1">
          <mxGeometry relative="1" as="geometry" />
        </mxCell>
        <mxCell id="0k3YlaqSM5i2ioF7Ne2N-54" value="1,1" style="edgeLabel;html=1;align=center;verticalAlign=middle;resizable=0;points=[];" parent="0k3YlaqSM5i2ioF7Ne2N-53" vertex="1" connectable="0">
          <mxGeometry x="0.3231" y="5" relative="1" as="geometry">
            <mxPoint as="offset" />
          </mxGeometry>
        </mxCell>
        <mxCell id="R4yh9_pA13OnIEpvpWFa-34" style="rounded=0;orthogonalLoop=1;jettySize=auto;html=1;exitX=0.25;exitY=1;exitDx=0;exitDy=0;entryX=0.5;entryY=0;entryDx=0;entryDy=0;endArrow=none;endFill=0;" parent="1" source="0k3YlaqSM5i2ioF7Ne2N-39" target="R4yh9_pA13OnIEpvpWFa-32" edge="1">
          <mxGeometry relative="1" as="geometry" />
        </mxCell>
        <mxCell id="R4yh9_pA13OnIEpvpWFa-45" value="n_divisions" style="edgeLabel;html=1;align=center;verticalAlign=middle;resizable=0;points=[];" parent="R4yh9_pA13OnIEpvpWFa-34" vertex="1" connectable="0">
          <mxGeometry x="-0.078" y="-1" relative="1" as="geometry">
            <mxPoint as="offset" />
          </mxGeometry>
        </mxCell>
        <mxCell id="0k3YlaqSM5i2ioF7Ne2N-39" value="society" style="rounded=0;whiteSpace=wrap;html=1;" parent="1" vertex="1">
          <mxGeometry x="292" y="470" width="90" height="30" as="geometry" />
        </mxCell>
        <mxCell id="0k3YlaqSM5i2ioF7Ne2N-41" style="rounded=0;orthogonalLoop=1;jettySize=auto;html=1;exitX=1;exitY=1;exitDx=0;exitDy=0;entryX=0;entryY=0;entryDx=0;entryDy=0;endArrow=none;endFill=0;" parent="1" source="0k3YlaqSM5i2ioF7Ne2N-34" target="0k3YlaqSM5i2ioF7Ne2N-39" edge="1">
          <mxGeometry relative="1" as="geometry" />
        </mxCell>
        <mxCell id="XBQzfGObYNGPcjXmQbU3-1" value="1,1" style="edgeLabel;html=1;align=center;verticalAlign=middle;resizable=0;points=[];" parent="0k3YlaqSM5i2ioF7Ne2N-41" vertex="1" connectable="0">
          <mxGeometry x="0.0649" y="-2" relative="1" as="geometry">
            <mxPoint as="offset" />
          </mxGeometry>
        </mxCell>
        <mxCell id="0k3YlaqSM5i2ioF7Ne2N-46" style="rounded=0;orthogonalLoop=1;jettySize=auto;html=1;exitX=1;exitY=0;exitDx=0;exitDy=0;entryX=0;entryY=0.5;entryDx=0;entryDy=0;endArrow=none;endFill=0;" parent="1" source="0k3YlaqSM5i2ioF7Ne2N-42" target="0k3YlaqSM5i2ioF7Ne2N-45" edge="1">
          <mxGeometry relative="1" as="geometry" />
        </mxCell>
        <mxCell id="0k3YlaqSM5i2ioF7Ne2N-47" value="0,N" style="edgeLabel;html=1;align=center;verticalAlign=middle;resizable=0;points=[];" parent="0k3YlaqSM5i2ioF7Ne2N-46" vertex="1" connectable="0">
          <mxGeometry x="0.1888" y="-1" relative="1" as="geometry">
            <mxPoint as="offset" />
          </mxGeometry>
        </mxCell>
        <mxCell id="0k3YlaqSM5i2ioF7Ne2N-42" value="player" style="rounded=0;whiteSpace=wrap;html=1;" parent="1" vertex="1">
          <mxGeometry x="52" y="500" width="80" height="30" as="geometry" />
        </mxCell>
        <mxCell id="0k3YlaqSM5i2ioF7Ne2N-43" value="name" style="ellipse;whiteSpace=wrap;html=1;fontColor=#000000;fillColor=#FFFFFF;" parent="1" vertex="1">
          <mxGeometry x="40" y="560" width="42" height="20" as="geometry" />
        </mxCell>
        <mxCell id="0k3YlaqSM5i2ioF7Ne2N-44" style="rounded=0;orthogonalLoop=1;jettySize=auto;html=1;exitX=0.5;exitY=0;exitDx=0;exitDy=0;entryX=0.158;entryY=1.043;entryDx=0;entryDy=0;entryPerimeter=0;endArrow=none;endFill=0;" parent="1" source="0k3YlaqSM5i2ioF7Ne2N-43" target="0k3YlaqSM5i2ioF7Ne2N-42" edge="1">
          <mxGeometry relative="1" as="geometry" />
        </mxCell>
        <mxCell id="0k3YlaqSM5i2ioF7Ne2N-45" value="belongs" style="rhombus;whiteSpace=wrap;html=1;" parent="1" vertex="1">
          <mxGeometry x="180" y="475" width="68" height="50" as="geometry" />
        </mxCell>
        <mxCell id="0k3YlaqSM5i2ioF7Ne2N-55" style="rounded=0;orthogonalLoop=1;jettySize=auto;html=1;exitX=0.5;exitY=0;exitDx=0;exitDy=0;entryX=0.5;entryY=1;entryDx=0;entryDy=0;endArrow=none;endFill=0;" parent="1" source="0k3YlaqSM5i2ioF7Ne2N-52" target="0k3YlaqSM5i2ioF7Ne2N-16" edge="1">
          <mxGeometry relative="1" as="geometry" />
        </mxCell>
        <mxCell id="0k3YlaqSM5i2ioF7Ne2N-56" value="2,10" style="edgeLabel;html=1;align=center;verticalAlign=middle;resizable=0;points=[];" parent="0k3YlaqSM5i2ioF7Ne2N-55" vertex="1" connectable="0">
          <mxGeometry x="-0.0276" y="-2" relative="1" as="geometry">
            <mxPoint as="offset" />
          </mxGeometry>
        </mxCell>
        <mxCell id="0k3YlaqSM5i2ioF7Ne2N-52" value="plays" style="rhombus;whiteSpace=wrap;html=1;" parent="1" vertex="1">
          <mxGeometry x="350" y="380" width="60" height="30" as="geometry" />
        </mxCell>
        <mxCell id="0k3YlaqSM5i2ioF7Ne2N-59" value="name" style="ellipse;whiteSpace=wrap;html=1;fillColor=#f5f5f5;strokeColor=#666666;fontColor=#333333;" parent="1" vertex="1">
          <mxGeometry x="420" y="240" width="50" height="30" as="geometry" />
        </mxCell>
        <mxCell id="0k3YlaqSM5i2ioF7Ne2N-64" style="rounded=0;orthogonalLoop=1;jettySize=auto;html=1;exitX=0;exitY=0;exitDx=0;exitDy=0;entryX=1;entryY=1;entryDx=0;entryDy=0;endArrow=none;endFill=0;" parent="1" source="0k3YlaqSM5i2ioF7Ne2N-62" target="0k3YlaqSM5i2ioF7Ne2N-63" edge="1">
          <mxGeometry relative="1" as="geometry" />
        </mxCell>
        <mxCell id="0k3YlaqSM5i2ioF7Ne2N-66" style="rounded=0;orthogonalLoop=1;jettySize=auto;html=1;exitX=0.5;exitY=1;exitDx=0;exitDy=0;entryX=0.5;entryY=0;entryDx=0;entryDy=0;endArrow=none;endFill=0;" parent="1" source="0k3YlaqSM5i2ioF7Ne2N-62" target="0k3YlaqSM5i2ioF7Ne2N-65" edge="1">
          <mxGeometry relative="1" as="geometry" />
        </mxCell>
        <mxCell id="0k3YlaqSM5i2ioF7Ne2N-96" style="rounded=0;orthogonalLoop=1;jettySize=auto;html=1;exitX=1;exitY=0;exitDx=0;exitDy=0;entryX=0.5;entryY=1;entryDx=0;entryDy=0;endArrow=none;endFill=0;" parent="1" source="0k3YlaqSM5i2ioF7Ne2N-62" target="0k3YlaqSM5i2ioF7Ne2N-94" edge="1">
          <mxGeometry relative="1" as="geometry" />
        </mxCell>
        <mxCell id="0k3YlaqSM5i2ioF7Ne2N-97" value="0,N" style="edgeLabel;html=1;align=center;verticalAlign=middle;resizable=0;points=[];" parent="0k3YlaqSM5i2ioF7Ne2N-96" vertex="1" connectable="0">
          <mxGeometry x="-0.4765" y="2" relative="1" as="geometry">
            <mxPoint y="-10" as="offset" />
          </mxGeometry>
        </mxCell>
        <mxCell id="0k3YlaqSM5i2ioF7Ne2N-62" value="round" style="rounded=0;whiteSpace=wrap;html=1;" parent="1" vertex="1">
          <mxGeometry x="621" y="850" width="89" height="30" as="geometry" />
        </mxCell>
        <mxCell id="0k3YlaqSM5i2ioF7Ne2N-63" value="id" style="ellipse;whiteSpace=wrap;html=1;" parent="1" vertex="1">
          <mxGeometry x="570" y="810" width="58" height="20" as="geometry" />
        </mxCell>
        <mxCell id="0k3YlaqSM5i2ioF7Ne2N-65" value="start_time" style="ellipse;whiteSpace=wrap;html=1;fillColor=#f5f5f5;fontColor=#333333;strokeColor=#666666;" parent="1" vertex="1">
          <mxGeometry x="615" y="920" width="66" height="30" as="geometry" />
        </mxCell>
        <mxCell id="0k3YlaqSM5i2ioF7Ne2N-70" style="rounded=0;orthogonalLoop=1;jettySize=auto;html=1;exitX=1;exitY=0.5;exitDx=0;exitDy=0;endArrow=none;endFill=0;entryX=0;entryY=0.5;entryDx=0;entryDy=0;" parent="1" source="0k3YlaqSM5i2ioF7Ne2N-68" target="0k3YlaqSM5i2ioF7Ne2N-69" edge="1">
          <mxGeometry relative="1" as="geometry">
            <mxPoint x="380" y="650" as="targetPoint" />
          </mxGeometry>
        </mxCell>
        <mxCell id="0k3YlaqSM5i2ioF7Ne2N-72" value="1,1" style="edgeLabel;html=1;align=center;verticalAlign=middle;resizable=0;points=[];" parent="0k3YlaqSM5i2ioF7Ne2N-70" vertex="1" connectable="0">
          <mxGeometry x="0.0262" y="1" relative="1" as="geometry">
            <mxPoint as="offset" />
          </mxGeometry>
        </mxCell>
        <mxCell id="0k3YlaqSM5i2ioF7Ne2N-85" style="rounded=0;orthogonalLoop=1;jettySize=auto;html=1;exitX=0.25;exitY=1;exitDx=0;exitDy=0;entryX=0.5;entryY=0;entryDx=0;entryDy=0;endArrow=none;endFill=0;" parent="1" source="0k3YlaqSM5i2ioF7Ne2N-68" target="0k3YlaqSM5i2ioF7Ne2N-84" edge="1">
          <mxGeometry relative="1" as="geometry" />
        </mxCell>
        <mxCell id="0k3YlaqSM5i2ioF7Ne2N-68" value="participation" style="rounded=0;whiteSpace=wrap;html=1;" parent="1" vertex="1">
          <mxGeometry x="238" y="770" width="102" height="40" as="geometry" />
        </mxCell>
        <mxCell id="0k3YlaqSM5i2ioF7Ne2N-71" style="rounded=0;orthogonalLoop=1;jettySize=auto;html=1;exitX=1;exitY=0.5;exitDx=0;exitDy=0;entryX=0;entryY=1;entryDx=0;entryDy=0;endArrow=none;endFill=0;" parent="1" source="0k3YlaqSM5i2ioF7Ne2N-69" target="0k3YlaqSM5i2ioF7Ne2N-62" edge="1">
          <mxGeometry relative="1" as="geometry" />
        </mxCell>
        <mxCell id="0k3YlaqSM5i2ioF7Ne2N-69" value="" style="rhombus;whiteSpace=wrap;html=1;" parent="1" vertex="1">
          <mxGeometry x="385" y="770" width="40" height="40" as="geometry" />
        </mxCell>
        <mxCell id="0k3YlaqSM5i2ioF7Ne2N-75" style="rounded=0;orthogonalLoop=1;jettySize=auto;html=1;exitX=1;exitY=1;exitDx=0;exitDy=0;entryX=0;entryY=0;entryDx=0;entryDy=0;endArrow=none;endFill=0;" parent="1" source="0k3YlaqSM5i2ioF7Ne2N-74" target="0k3YlaqSM5i2ioF7Ne2N-68" edge="1">
          <mxGeometry relative="1" as="geometry" />
        </mxCell>
        <mxCell id="0k3YlaqSM5i2ioF7Ne2N-77" value="1,1" style="edgeLabel;html=1;align=center;verticalAlign=middle;resizable=0;points=[];" parent="0k3YlaqSM5i2ioF7Ne2N-75" vertex="1" connectable="0">
          <mxGeometry x="-0.0507" y="5" relative="1" as="geometry">
            <mxPoint as="offset" />
          </mxGeometry>
        </mxCell>
        <mxCell id="0k3YlaqSM5i2ioF7Ne2N-76" style="rounded=0;orthogonalLoop=1;jettySize=auto;html=1;exitX=0;exitY=0;exitDx=0;exitDy=0;entryX=1;entryY=1;entryDx=0;entryDy=0;endArrow=none;endFill=0;" parent="1" source="0k3YlaqSM5i2ioF7Ne2N-74" target="0k3YlaqSM5i2ioF7Ne2N-42" edge="1">
          <mxGeometry relative="1" as="geometry" />
        </mxCell>
        <mxCell id="0k3YlaqSM5i2ioF7Ne2N-78" value="0,N" style="edgeLabel;html=1;align=center;verticalAlign=middle;resizable=0;points=[];" parent="0k3YlaqSM5i2ioF7Ne2N-76" vertex="1" connectable="0">
          <mxGeometry x="0.2863" y="5" relative="1" as="geometry">
            <mxPoint as="offset" />
          </mxGeometry>
        </mxCell>
        <mxCell id="0k3YlaqSM5i2ioF7Ne2N-74" value="" style="rhombus;whiteSpace=wrap;html=1;" parent="1" vertex="1">
          <mxGeometry x="161" y="577.5" width="42" height="40" as="geometry" />
        </mxCell>
        <mxCell id="0k3YlaqSM5i2ioF7Ne2N-84" value="order" style="ellipse;whiteSpace=wrap;html=1;fillColor=#f5f5f5;fontColor=#333333;strokeColor=#666666;" parent="1" vertex="1">
          <mxGeometry x="238" y="820" width="52" height="30" as="geometry" />
        </mxCell>
        <mxCell id="0k3YlaqSM5i2ioF7Ne2N-87" value="" style="endArrow=oval;html=1;rounded=0;endFill=1;" parent="1" edge="1">
          <mxGeometry width="50" height="50" relative="1" as="geometry">
            <mxPoint x="212" y="760" as="sourcePoint" />
            <mxPoint x="352" y="810" as="targetPoint" />
            <Array as="points">
              <mxPoint x="352" y="760" />
            </Array>
          </mxGeometry>
        </mxCell>
        <mxCell id="0k3YlaqSM5i2ioF7Ne2N-88" value="match" style="rounded=0;whiteSpace=wrap;html=1;" parent="1" vertex="1">
          <mxGeometry x="710" y="651" width="70" height="35" as="geometry" />
        </mxCell>
        <mxCell id="0k3YlaqSM5i2ioF7Ne2N-91" style="rounded=0;orthogonalLoop=1;jettySize=auto;html=1;exitX=1;exitY=0.5;exitDx=0;exitDy=0;entryX=0;entryY=0.25;entryDx=0;entryDy=0;endArrow=none;endFill=0;" parent="1" source="0k3YlaqSM5i2ioF7Ne2N-89" target="0k3YlaqSM5i2ioF7Ne2N-88" edge="1">
          <mxGeometry relative="1" as="geometry" />
        </mxCell>
        <mxCell id="0k3YlaqSM5i2ioF7Ne2N-92" value="2,2" style="edgeLabel;html=1;align=center;verticalAlign=middle;resizable=0;points=[];" parent="0k3YlaqSM5i2ioF7Ne2N-91" vertex="1" connectable="0">
          <mxGeometry x="0.5001" y="-3" relative="1" as="geometry">
            <mxPoint as="offset" />
          </mxGeometry>
        </mxCell>
        <mxCell id="0k3YlaqSM5i2ioF7Ne2N-102" style="rounded=0;orthogonalLoop=1;jettySize=auto;html=1;exitX=0.5;exitY=1;exitDx=0;exitDy=0;endArrow=none;endFill=0;" parent="1" source="0k3YlaqSM5i2ioF7Ne2N-89" target="0k3YlaqSM5i2ioF7Ne2N-101" edge="1">
          <mxGeometry relative="1" as="geometry" />
        </mxCell>
        <mxCell id="0k3YlaqSM5i2ioF7Ne2N-104" style="rounded=0;orthogonalLoop=1;jettySize=auto;html=1;exitX=0.5;exitY=0;exitDx=0;exitDy=0;entryX=0.5;entryY=1;entryDx=0;entryDy=0;endArrow=none;endFill=0;" parent="1" source="0k3YlaqSM5i2ioF7Ne2N-89" target="0k3YlaqSM5i2ioF7Ne2N-103" edge="1">
          <mxGeometry relative="1" as="geometry" />
        </mxCell>
        <mxCell id="0k3YlaqSM5i2ioF7Ne2N-89" value="disputate" style="rhombus;whiteSpace=wrap;html=1;" parent="1" vertex="1">
          <mxGeometry x="555" y="633.75" width="80" height="50" as="geometry" />
        </mxCell>
        <mxCell id="0k3YlaqSM5i2ioF7Ne2N-95" style="rounded=0;orthogonalLoop=1;jettySize=auto;html=1;exitX=0.5;exitY=0;exitDx=0;exitDy=0;entryX=0;entryY=1;entryDx=0;entryDy=0;endArrow=none;endFill=0;" parent="1" source="0k3YlaqSM5i2ioF7Ne2N-94" target="0k3YlaqSM5i2ioF7Ne2N-88" edge="1">
          <mxGeometry relative="1" as="geometry" />
        </mxCell>
        <mxCell id="0k3YlaqSM5i2ioF7Ne2N-98" value="1,1" style="edgeLabel;html=1;align=center;verticalAlign=middle;resizable=0;points=[];" parent="0k3YlaqSM5i2ioF7Ne2N-95" vertex="1" connectable="0">
          <mxGeometry x="-0.0246" y="-2" relative="1" as="geometry">
            <mxPoint x="1" as="offset" />
          </mxGeometry>
        </mxCell>
        <mxCell id="0k3YlaqSM5i2ioF7Ne2N-94" value="" style="rhombus;whiteSpace=wrap;html=1;" parent="1" vertex="1">
          <mxGeometry x="691" y="750" width="39" height="40" as="geometry" />
        </mxCell>
        <mxCell id="0k3YlaqSM5i2ioF7Ne2N-99" value="" style="endArrow=oval;html=1;rounded=0;endFill=1;" parent="1" edge="1">
          <mxGeometry width="50" height="50" relative="1" as="geometry">
            <mxPoint x="737.5" y="699" as="sourcePoint" />
            <mxPoint x="697.5" y="639" as="targetPoint" />
            <Array as="points">
              <mxPoint x="697.5" y="699" />
            </Array>
          </mxGeometry>
        </mxCell>
        <mxCell id="0k3YlaqSM5i2ioF7Ne2N-101" value="score" style="ellipse;whiteSpace=wrap;html=1;fillColor=#f5f5f5;fontColor=#333333;strokeColor=#666666;" parent="1" vertex="1">
          <mxGeometry x="573.5" y="700" width="41.5" height="20" as="geometry" />
        </mxCell>
        <mxCell id="0k3YlaqSM5i2ioF7Ne2N-103" value="A/X" style="ellipse;whiteSpace=wrap;html=1;fillColor=#f5f5f5;fontColor=#333333;strokeColor=#666666;" parent="1" vertex="1">
          <mxGeometry x="575" y="597.5" width="40" height="20" as="geometry" />
        </mxCell>
        <mxCell id="0k3YlaqSM5i2ioF7Ne2N-108" style="rounded=0;orthogonalLoop=1;jettySize=auto;html=1;exitX=0;exitY=0;exitDx=0;exitDy=0;entryX=1;entryY=1;entryDx=0;entryDy=0;endArrow=none;endFill=0;" parent="1" source="0k3YlaqSM5i2ioF7Ne2N-107" target="0k3YlaqSM5i2ioF7Ne2N-89" edge="1">
          <mxGeometry relative="1" as="geometry" />
        </mxCell>
        <mxCell id="0k3YlaqSM5i2ioF7Ne2N-107" value="wins?" style="ellipse;whiteSpace=wrap;html=1;fillColor=#f5f5f5;fontColor=#333333;strokeColor=#666666;" parent="1" vertex="1">
          <mxGeometry x="615" y="695" width="50" height="25" as="geometry" />
        </mxCell>
        <mxCell id="0k3YlaqSM5i2ioF7Ne2N-111" style="rounded=0;orthogonalLoop=1;jettySize=auto;html=1;exitX=0;exitY=0;exitDx=0;exitDy=0;entryX=1;entryY=1;entryDx=0;entryDy=0;endArrow=none;endFill=0;" parent="1" source="0k3YlaqSM5i2ioF7Ne2N-109" target="0k3YlaqSM5i2ioF7Ne2N-62" edge="1">
          <mxGeometry relative="1" as="geometry" />
        </mxCell>
        <mxCell id="0k3YlaqSM5i2ioF7Ne2N-109" value="num" style="ellipse;whiteSpace=wrap;html=1;fillColor=#f5f5f5;fontColor=#333333;strokeColor=#666666;" parent="1" vertex="1">
          <mxGeometry x="750" y="900" width="46" height="30" as="geometry" />
        </mxCell>
        <mxCell id="pE3ep6y7l_85vlBy4X_p-2" style="rounded=0;orthogonalLoop=1;jettySize=auto;html=1;exitX=0.5;exitY=0;exitDx=0;exitDy=0;entryX=0.75;entryY=1;entryDx=0;entryDy=0;endArrow=none;endFill=0;" parent="1" source="pE3ep6y7l_85vlBy4X_p-1" target="0k3YlaqSM5i2ioF7Ne2N-39" edge="1">
          <mxGeometry relative="1" as="geometry" />
        </mxCell>
        <mxCell id="pE3ep6y7l_85vlBy4X_p-1" value="credits" style="ellipse;whiteSpace=wrap;html=1;fillColor=#f5f5f5;fontColor=#333333;strokeColor=#666666;" parent="1" vertex="1">
          <mxGeometry x="348" y="520" width="52" height="30" as="geometry" />
        </mxCell>
        <mxCell id="51aXv0iK2E-C18hT-EF_-7" style="rounded=0;orthogonalLoop=1;jettySize=auto;html=1;exitX=0.5;exitY=0;exitDx=0;exitDy=0;entryX=0.5;entryY=0;entryDx=0;entryDy=0;endArrow=none;endFill=0;" parent="1" source="51aXv0iK2E-C18hT-EF_-5" target="51aXv0iK2E-C18hT-EF_-6" edge="1">
          <mxGeometry relative="1" as="geometry" />
        </mxCell>
        <mxCell id="51aXv0iK2E-C18hT-EF_-16" style="rounded=0;orthogonalLoop=1;jettySize=auto;html=1;exitX=1;exitY=1;exitDx=0;exitDy=0;entryX=0.5;entryY=0;entryDx=0;entryDy=0;endArrow=none;endFill=0;" parent="1" source="51aXv0iK2E-C18hT-EF_-5" target="51aXv0iK2E-C18hT-EF_-14" edge="1">
          <mxGeometry relative="1" as="geometry" />
        </mxCell>
        <mxCell id="51aXv0iK2E-C18hT-EF_-18" value="1,20" style="edgeLabel;html=1;align=center;verticalAlign=middle;resizable=0;points=[];" parent="51aXv0iK2E-C18hT-EF_-16" vertex="1" connectable="0">
          <mxGeometry x="-0.1343" y="8" relative="1" as="geometry">
            <mxPoint as="offset" />
          </mxGeometry>
        </mxCell>
        <mxCell id="51aXv0iK2E-C18hT-EF_-5" value="season" style="rounded=0;whiteSpace=wrap;html=1;" parent="1" vertex="1">
          <mxGeometry x="750" y="310" width="54" height="25" as="geometry" />
        </mxCell>
        <mxCell id="51aXv0iK2E-C18hT-EF_-6" value="year" style="ellipse;whiteSpace=wrap;html=1;" parent="1" vertex="1">
          <mxGeometry x="747" y="270" width="60" height="20" as="geometry" />
        </mxCell>
        <mxCell id="51aXv0iK2E-C18hT-EF_-9" style="rounded=0;orthogonalLoop=1;jettySize=auto;html=1;exitX=1;exitY=0.5;exitDx=0;exitDy=0;entryX=0;entryY=0;entryDx=0;entryDy=0;endArrow=none;endFill=0;" parent="1" source="51aXv0iK2E-C18hT-EF_-8" target="51aXv0iK2E-C18hT-EF_-5" edge="1">
          <mxGeometry relative="1" as="geometry" />
        </mxCell>
        <mxCell id="51aXv0iK2E-C18hT-EF_-13" value="0,N" style="edgeLabel;html=1;align=center;verticalAlign=middle;resizable=0;points=[];" parent="51aXv0iK2E-C18hT-EF_-9" vertex="1" connectable="0">
          <mxGeometry x="0.1311" y="-2" relative="1" as="geometry">
            <mxPoint as="offset" />
          </mxGeometry>
        </mxCell>
        <mxCell id="51aXv0iK2E-C18hT-EF_-8" value="" style="rhombus;whiteSpace=wrap;html=1;" parent="1" vertex="1">
          <mxGeometry x="540" y="290" width="40" height="40" as="geometry" />
        </mxCell>
        <mxCell id="51aXv0iK2E-C18hT-EF_-15" value="1,1" style="rounded=0;orthogonalLoop=1;jettySize=auto;html=1;exitX=0;exitY=0.5;exitDx=0;exitDy=0;entryX=1;entryY=0.5;entryDx=0;entryDy=0;endArrow=none;endFill=0;" parent="1" source="51aXv0iK2E-C18hT-EF_-14" target="0k3YlaqSM5i2ioF7Ne2N-62" edge="1">
          <mxGeometry relative="1" as="geometry" />
        </mxCell>
        <mxCell id="51aXv0iK2E-C18hT-EF_-19" value="1,1" style="edgeLabel;html=1;align=center;verticalAlign=middle;resizable=0;points=[];" parent="51aXv0iK2E-C18hT-EF_-15" vertex="1" connectable="0">
          <mxGeometry x="0.0047" y="1" relative="1" as="geometry">
            <mxPoint x="-1" as="offset" />
          </mxGeometry>
        </mxCell>
        <mxCell id="51aXv0iK2E-C18hT-EF_-14" value="" style="rhombus;whiteSpace=wrap;html=1;" parent="1" vertex="1">
          <mxGeometry x="780" y="845" width="40" height="40" as="geometry" />
        </mxCell>
        <mxCell id="9" style="edgeStyle=none;rounded=0;orthogonalLoop=1;jettySize=auto;html=1;exitX=1;exitY=0.5;exitDx=0;exitDy=0;entryX=0;entryY=0.5;entryDx=0;entryDy=0;endArrow=none;endFill=0;" parent="1" source="2" target="8" edge="1">
          <mxGeometry relative="1" as="geometry" />
        </mxCell>
        <mxCell id="11" value="1,1" style="edgeLabel;html=1;align=center;verticalAlign=middle;resizable=0;points=[];" parent="9" vertex="1" connectable="0">
          <mxGeometry x="-0.3263" y="-3" relative="1" as="geometry">
            <mxPoint x="10" as="offset" />
          </mxGeometry>
        </mxCell>
        <mxCell id="2" value="score" style="rounded=0;whiteSpace=wrap;html=1;" parent="1" vertex="1">
          <mxGeometry x="220" y="870" width="70" height="30" as="geometry" />
        </mxCell>
        <mxCell id="4" style="rounded=0;orthogonalLoop=1;jettySize=auto;html=1;exitX=1;exitY=0.5;exitDx=0;exitDy=0;entryX=0;entryY=0.5;entryDx=0;entryDy=0;endArrow=none;endFill=0;" parent="1" source="3" target="2" edge="1">
          <mxGeometry relative="1" as="geometry" />
        </mxCell>
        <mxCell id="7" value="1,1" style="edgeLabel;html=1;align=center;verticalAlign=middle;resizable=0;points=[];" parent="4" vertex="1" connectable="0">
          <mxGeometry x="-0.3235" y="3" relative="1" as="geometry">
            <mxPoint as="offset" />
          </mxGeometry>
        </mxCell>
        <mxCell id="5" style="edgeStyle=none;rounded=0;orthogonalLoop=1;jettySize=auto;html=1;exitX=0.5;exitY=0;exitDx=0;exitDy=0;entryX=0.75;entryY=1;entryDx=0;entryDy=0;endArrow=none;endFill=0;" parent="1" source="3" target="0k3YlaqSM5i2ioF7Ne2N-42" edge="1">
          <mxGeometry relative="1" as="geometry" />
        </mxCell>
        <mxCell id="6" value="0,N" style="edgeLabel;html=1;align=center;verticalAlign=middle;resizable=0;points=[];" parent="5" vertex="1" connectable="0">
          <mxGeometry x="0.2261" y="-1" relative="1" as="geometry">
            <mxPoint as="offset" />
          </mxGeometry>
        </mxCell>
        <mxCell id="3" value="" style="rhombus;whiteSpace=wrap;html=1;" parent="1" vertex="1">
          <mxGeometry x="92" y="865" width="40" height="40" as="geometry" />
        </mxCell>
        <mxCell id="10" style="edgeStyle=none;rounded=0;orthogonalLoop=1;jettySize=auto;html=1;exitX=1;exitY=0;exitDx=0;exitDy=0;entryX=0.25;entryY=1;entryDx=0;entryDy=0;endArrow=none;endFill=0;" parent="1" source="8" target="0k3YlaqSM5i2ioF7Ne2N-62" edge="1">
          <mxGeometry relative="1" as="geometry" />
        </mxCell>
        <mxCell id="13" value="0,N" style="edgeLabel;html=1;align=center;verticalAlign=middle;resizable=0;points=[];" parent="10" vertex="1" connectable="0">
          <mxGeometry x="0.2121" y="-4" relative="1" as="geometry">
            <mxPoint x="-1" as="offset" />
          </mxGeometry>
        </mxCell>
        <mxCell id="8" value="" style="rhombus;whiteSpace=wrap;html=1;" parent="1" vertex="1">
          <mxGeometry x="420" y="865" width="40" height="40" as="geometry" />
        </mxCell>
        <mxCell id="14" value="" style="endArrow=oval;html=1;strokeWidth=1;rounded=0;endFill=1;" parent="1" edge="1">
          <mxGeometry width="50" height="50" relative="1" as="geometry">
            <mxPoint x="210" y="910" as="sourcePoint" />
            <mxPoint x="300" y="910" as="targetPoint" />
            <Array as="points">
              <mxPoint x="210" y="860" />
              <mxPoint x="300" y="860" />
            </Array>
          </mxGeometry>
        </mxCell>
        <mxCell id="22" style="edgeStyle=none;rounded=0;orthogonalLoop=1;jettySize=auto;html=1;exitX=0.5;exitY=0;exitDx=0;exitDy=0;entryX=0.5;entryY=1;entryDx=0;entryDy=0;endArrow=none;endFill=0;" parent="1" source="17" target="2" edge="1">
          <mxGeometry relative="1" as="geometry" />
        </mxCell>
        <mxCell id="17" value="score" style="ellipse;whiteSpace=wrap;html=1;fillColor=#f5f5f5;fontColor=#333333;strokeColor=#666666;" parent="1" vertex="1">
          <mxGeometry x="229" y="910" width="52" height="30" as="geometry" />
        </mxCell>
        <mxCell id="28" style="rounded=0;orthogonalLoop=1;jettySize=auto;html=1;exitX=0;exitY=0;exitDx=0;exitDy=0;entryX=0.75;entryY=1;entryDx=0;entryDy=0;endArrow=none;endFill=0;" parent="1" source="23" target="0k3YlaqSM5i2ioF7Ne2N-62" edge="1">
          <mxGeometry relative="1" as="geometry" />
        </mxCell>
        <mxCell id="23" value="end_time" style="ellipse;whiteSpace=wrap;html=1;fillColor=#f5f5f5;fontColor=#333333;strokeColor=#666666;" parent="1" vertex="1">
          <mxGeometry x="691" y="930" width="69" height="30.5" as="geometry" />
        </mxCell>
        <mxCell id="R4yh9_pA13OnIEpvpWFa-38" style="rounded=0;orthogonalLoop=1;jettySize=auto;html=1;exitX=1;exitY=0.5;exitDx=0;exitDy=0;entryX=0;entryY=0.5;entryDx=0;entryDy=0;endArrow=none;endFill=0;" parent="1" source="R4yh9_pA13OnIEpvpWFa-29" target="0k3YlaqSM5i2ioF7Ne2N-89" edge="1">
          <mxGeometry relative="1" as="geometry" />
        </mxCell>
        <mxCell id="R4yh9_pA13OnIEpvpWFa-53" style="rounded=0;orthogonalLoop=1;jettySize=auto;html=1;exitX=1;exitY=0;exitDx=0;exitDy=0;entryX=0;entryY=1;entryDx=0;entryDy=0;endArrow=none;endFill=0;" parent="1" source="R4yh9_pA13OnIEpvpWFa-29" target="R4yh9_pA13OnIEpvpWFa-51" edge="1">
          <mxGeometry relative="1" as="geometry" />
        </mxCell>
        <mxCell id="R4yh9_pA13OnIEpvpWFa-58" value="1,1" style="edgeLabel;html=1;align=center;verticalAlign=middle;resizable=0;points=[];" parent="R4yh9_pA13OnIEpvpWFa-53" vertex="1" connectable="0">
          <mxGeometry x="0.2188" y="-2" relative="1" as="geometry">
            <mxPoint as="offset" />
          </mxGeometry>
        </mxCell>
        <mxCell id="R4yh9_pA13OnIEpvpWFa-29" value="team" style="whiteSpace=wrap;html=1;" parent="1" vertex="1">
          <mxGeometry x="293" y="640" width="88" height="37.5" as="geometry" />
        </mxCell>
        <mxCell id="R4yh9_pA13OnIEpvpWFa-35" style="rounded=0;orthogonalLoop=1;jettySize=auto;html=1;exitX=0.5;exitY=1;exitDx=0;exitDy=0;entryX=0.25;entryY=0;entryDx=0;entryDy=0;endArrow=none;endFill=0;" parent="1" source="R4yh9_pA13OnIEpvpWFa-32" target="R4yh9_pA13OnIEpvpWFa-29" edge="1">
          <mxGeometry relative="1" as="geometry" />
        </mxCell>
        <mxCell id="R4yh9_pA13OnIEpvpWFa-36" value="1,1" style="edgeLabel;html=1;align=center;verticalAlign=middle;resizable=0;points=[];" parent="R4yh9_pA13OnIEpvpWFa-35" vertex="1" connectable="0">
          <mxGeometry x="-0.1556" relative="1" as="geometry">
            <mxPoint as="offset" />
          </mxGeometry>
        </mxCell>
        <mxCell id="R4yh9_pA13OnIEpvpWFa-32" value="manages" style="rhombus;whiteSpace=wrap;html=1;" parent="1" vertex="1">
          <mxGeometry x="279" y="560" width="72" height="50" as="geometry" />
        </mxCell>
        <mxCell id="R4yh9_pA13OnIEpvpWFa-48" style="rounded=0;orthogonalLoop=1;jettySize=auto;html=1;exitX=1;exitY=0.5;exitDx=0;exitDy=0;entryX=0;entryY=0.5;entryDx=0;entryDy=0;endArrow=none;endFill=0;" parent="1" source="R4yh9_pA13OnIEpvpWFa-39" target="R4yh9_pA13OnIEpvpWFa-47" edge="1">
          <mxGeometry relative="1" as="geometry" />
        </mxCell>
        <mxCell id="R4yh9_pA13OnIEpvpWFa-52" style="edgeStyle=orthogonalEdgeStyle;rounded=0;orthogonalLoop=1;jettySize=auto;html=1;exitX=0.5;exitY=1;exitDx=0;exitDy=0;entryX=0.5;entryY=0;entryDx=0;entryDy=0;endArrow=none;endFill=0;" parent="1" source="R4yh9_pA13OnIEpvpWFa-39" target="R4yh9_pA13OnIEpvpWFa-51" edge="1">
          <mxGeometry relative="1" as="geometry" />
        </mxCell>
        <mxCell id="R4yh9_pA13OnIEpvpWFa-57" value="1,N" style="edgeLabel;html=1;align=center;verticalAlign=middle;resizable=0;points=[];" parent="R4yh9_pA13OnIEpvpWFa-52" vertex="1" connectable="0">
          <mxGeometry x="0.4981" y="-3" relative="1" as="geometry">
            <mxPoint x="2" y="-4" as="offset" />
          </mxGeometry>
        </mxCell>
        <mxCell id="R4yh9_pA13OnIEpvpWFa-39" value="division" style="whiteSpace=wrap;html=1;" parent="1" vertex="1">
          <mxGeometry x="513.5" y="430" width="60" height="30" as="geometry" />
        </mxCell>
        <mxCell id="R4yh9_pA13OnIEpvpWFa-42" style="rounded=0;orthogonalLoop=1;jettySize=auto;html=1;exitX=1;exitY=1;exitDx=0;exitDy=0;entryX=0;entryY=0;entryDx=0;entryDy=0;endArrow=none;endFill=0;" parent="1" source="R4yh9_pA13OnIEpvpWFa-40" target="R4yh9_pA13OnIEpvpWFa-39" edge="1">
          <mxGeometry relative="1" as="geometry" />
        </mxCell>
        <mxCell id="R4yh9_pA13OnIEpvpWFa-43" value="1,1" style="edgeLabel;html=1;align=center;verticalAlign=middle;resizable=0;points=[];" parent="R4yh9_pA13OnIEpvpWFa-42" vertex="1" connectable="0">
          <mxGeometry x="-0.0083" relative="1" as="geometry">
            <mxPoint as="offset" />
          </mxGeometry>
        </mxCell>
        <mxCell id="R4yh9_pA13OnIEpvpWFa-40" value="" style="rhombus;whiteSpace=wrap;html=1;" parent="1" vertex="1">
          <mxGeometry x="440" y="360" width="40" height="40" as="geometry" />
        </mxCell>
        <mxCell id="R4yh9_pA13OnIEpvpWFa-47" value="num" style="ellipse;whiteSpace=wrap;html=1;fillColor=#f5f5f5;fontColor=#333333;strokeColor=#666666;" parent="1" vertex="1">
          <mxGeometry x="600" y="430" width="50" height="30" as="geometry" />
        </mxCell>
        <mxCell id="R4yh9_pA13OnIEpvpWFa-50" value="" style="edgeStyle=none;orthogonalLoop=1;jettySize=auto;html=1;rounded=0;startArrow=oval;startFill=1;endArrow=none;endFill=0;" parent="1" edge="1">
          <mxGeometry width="100" relative="1" as="geometry">
            <mxPoint x="580" y="475" as="sourcePoint" />
            <mxPoint x="490" y="425" as="targetPoint" />
            <Array as="points">
              <mxPoint x="580" y="425" />
            </Array>
          </mxGeometry>
        </mxCell>
        <mxCell id="R4yh9_pA13OnIEpvpWFa-51" value="plays" style="rhombus;whiteSpace=wrap;html=1;" parent="1" vertex="1">
          <mxGeometry x="515" y="490" width="40" height="40" as="geometry" />
        </mxCell>
        <mxCell id="R4yh9_pA13OnIEpvpWFa-54" value="n_divisions" style="ellipse;whiteSpace=wrap;html=1;fillColor=#f5f5f5;fontColor=#333333;strokeColor=#666666;" parent="1" vertex="1">
          <mxGeometry x="290" y="260" width="70" height="30" as="geometry" />
        </mxCell>
        <mxCell id="GDygO9_V8UZiGaFndE6t-29" style="rounded=0;orthogonalLoop=1;jettySize=auto;html=1;exitX=0.5;exitY=1;exitDx=0;exitDy=0;entryX=0.75;entryY=0;entryDx=0;entryDy=0;endArrow=none;endFill=0;" edge="1" parent="1" source="GDygO9_V8UZiGaFndE6t-28" target="0k3YlaqSM5i2ioF7Ne2N-68">
          <mxGeometry relative="1" as="geometry" />
        </mxCell>
        <mxCell id="GDygO9_V8UZiGaFndE6t-30" style="edgeStyle=orthogonalEdgeStyle;rounded=0;orthogonalLoop=1;jettySize=auto;html=1;exitX=0.5;exitY=0;exitDx=0;exitDy=0;entryX=0.25;entryY=1;entryDx=0;entryDy=0;endArrow=none;endFill=0;" edge="1" parent="1" source="GDygO9_V8UZiGaFndE6t-28" target="R4yh9_pA13OnIEpvpWFa-29">
          <mxGeometry relative="1" as="geometry" />
        </mxCell>
        <mxCell id="GDygO9_V8UZiGaFndE6t-28" value="" style="rhombus;whiteSpace=wrap;html=1;" vertex="1" parent="1">
          <mxGeometry x="294" y="700" width="40" height="40" as="geometry" />
        </mxCell>
      </root>
    </mxGraphModel>
  </diagram>
</mxfile>
